<?xml version="1.0"?>
<svg width="860" height="192" xmlns="http://www.w3.org/2000/svg" xmlns:svg="http://www.w3.org/2000/svg" data-name="Layer 1">
 <g class="layer">
  <title>Layer 1</title>
  <polygon id="svg_1" points="183.55999755859375,66.22000122070312 162.6199951171875,147.85000610351562 139.17999267578125,66.22000122070312 102.16999816894531,66.22000122070312 78.72000122070312,147.85000610351562 57.790000915527344,66.22000122070312 16.18000030517578,66.22000122070312 55.76000213623047,190.67001342773438 98.06999206542969,190.67001342773438 120.14999389648438,116.42999267578125 143.0699920654297,190.67001342773438 185.58999633789062,190.67001342773438 225.17001342773438,66.22000122070312 183.55999755859375,66.22000122070312 "/>
  <circle cx="120.19" cy="25.45" id="svg_2" r="25.28"/>
  <circle cx="25.28" cy="25.45" id="svg_3" r="25.28"/>
  <circle cx="216.14" cy="25.45" id="svg_4" r="25.28"/>
  <path d="m503.16,124.41a15.09,15.09 0 0 0 -7.59,-1.59c-8.5,0 -14.82,3.36 -18.85,10l-0.8,-8.74l-17.89,0l0,66.6l20.29,0l0,-34.4c0,-5 1.39,-9 4.12,-11.7a14.69,14.69 0 0 1 17.06,-2.43l1.85,1.2l2.68,-18.46l-0.87,-0.48z" id="svg_5"/>
  <path d="m564.29,124.41a15.07,15.07 0 0 0 -7.59,-1.59c-8.5,0 -14.81,3.36 -18.84,10l-0.8,-8.74l-17.88,0l0,66.6l20.29,0l0,-34.4c0,-5 1.39,-9 4.12,-11.7a14.69,14.69 0 0 1 17.06,-2.43l1.85,1.2l2.61,-18.43l-0.82,-0.51z" id="svg_6"/>
  <path d="m673.39,132.05c-6,-6.13 -14.42,-9.23 -25.06,-9.23s-19.07,3.1 -25.06,9.23s-9,14.64 -9,25.35s3,19.24 9,25.35s14.42,9.23 25.06,9.23s19.07,-3.1 25.06,-9.23s9,-14.64 9,-25.35s-3.02,-19.24 -9,-25.35zm-35.24,11.09c2.33,-3 5.66,-4.49 10.18,-4.49s7.84,1.47 10.18,4.49s3.6,7.89 3.6,14.26s-1.21,11.17 -3.6,14.26s-5.67,4.49 -10.18,4.49s-7.85,-1.47 -10.18,-4.49s-3.6,-7.89 -3.6,-14.26s1.21,-11.12 3.6,-14.26z" id="svg_7"/>
  <path d="m741.03,124.41a15.11,15.11 0 0 0 -7.6,-1.59c-8.49,0 -14.81,3.36 -18.84,10l-0.8,-8.74l-17.87,0l0,66.6l20.29,0l0,-34.4c0,-5 1.38,-9 4.12,-11.7a14.69,14.69 0 0 1 17.06,-2.43l1.85,1.2l2.61,-18.43l-0.82,-0.51z" id="svg_8"/>
  <path d="m443.58,157.83l0,-1.12c-0.12,-10.33 -3.13,-18.58 -8.93,-24.52s-14.31,-9.15 -24.87,-9.15s-18.93,3.08 -24.87,9.15s-8.81,14.19 -8.93,24.52l0,0l0,0c0,0.18 0,0.36 0,0.54s0,0.27 0,0.4l0,0.24l0,0c0.1,10.45 2.67,18.78 7.65,24.76c5.15,6.18 12.27,9.31 21.18,9.31a23.71,23.71 0 0 0 12.67,-3.4a22.7,22.7 0 0 0 6.23,-5.64l0.75,7.76l19.14,0l0,-32.85l-0.02,0zm-20,0.21c0,5.75 -1.25,10.26 -3.72,13.4a11.86,11.86 0 0 1 -10,4.61c-4.35,0 -7.65,-1.51 -10.08,-4.61s-3.72,-7.86 -3.72,-14s1.25,-10.9 3.72,-14s5.73,-4.61 10.08,-4.61a12,12 0 0 1 10,4.55c2.46,3.1 3.71,7.63 3.71,13.46l0.01,1.2z" id="svg_9"/>
  <polygon id="svg_10" points="350.45001220703125,124.10000610351562 338.7099914550781,169.91000366210938 325.54998779296875,124.10000610351562 306.2099914550781,124.10000610351562 293.04998779296875,169.89999389648438 281.30999755859375,124.10000610351562 259.7900085449219,124.10000610351562 280.9800109863281,190.70001220703125 303.2099914550781,190.70001220703125 315.5899963378906,149.10000610351562 328.42999267578125,190.70001220703125 350.7799987792969,190.70001220703125 371.9700012207031,124.10000610351562 350.45001220703125,124.10000610351562 "/>
  <circle cx="590.46" cy="108.08" id="svg_11" r="10.6"/>
  <rect height="66.61" id="svg_12" width="20.29" x="580.32" y="123.92"/>
  <rect height="93.05" id="svg_13" width="20.29" x="452.72" y="0"/>
  <rect height="93.05" id="svg_14" width="20.29" x="488.69" y="0"/>
  <path d="m584.66,34.48c-5.11,-6.18 -12.21,-9.31 -21.12,-9.31a24,24 0 0 0 -12.73,3.33a23.11,23.11 0 0 0 -5.9,5.16l0,-33.66l-20.29,0l0,93.05l18.18,0l0.46,-9.08a23.78,23.78 0 0 0 20.28,10.36c8.9,0 16,-3.11 21.11,-9.25s7.6,-14.54 7.6,-25.21s-2.56,-19.29 -7.59,-25.39zm-26.35,43.64a11.78,11.78 0 0 1 -9.28,-3.94c-2.41,-2.68 -3.79,-6.62 -4.11,-11.63l0,-5.52c0.32,-5 1.7,-8.94 4.12,-11.66a11.68,11.68 0 0 1 9.28,-4c4.34,0 7.61,1.5 10,4.56s3.66,7.79 3.66,13.82s-1.23,10.67 -3.66,13.81l0,0c-2.4,3.07 -5.67,4.56 -10.01,4.56z" id="svg_15"/>
  <circle cx="690.22" cy="10.6" id="svg_16" r="10.6"/>
  <rect height="66.61" id="svg_17" width="20.29" x="680.08" y="26.44"/>
  <path d="m773.11,31.55l0,0c-4.46,-4.24 -10.39,-6.38 -17.62,-6.38a27.37,27.37 0 0 0 -13.71,3.37a22.71,22.71 0 0 0 -6.91,6.09l-0.37,-8.19l-18.47,0l0,66.61l20.29,0l0,-35.09c0,-5.55 1.3,-9.68 3.87,-12.28a12.59,12.59 0 0 1 9.4,-3.92c8.92,0 9.95,7.5 9.95,13.14l0,38.15l20.29,0l0,-43.26c0.03,-7.84 -2.24,-13.98 -6.72,-18.24z" id="svg_18"/>
  <polygon id="svg_19" points="350.45001220703125,26.30999755859375 338.7099914550781,72.1199951171875 325.54998779296875,26.30999755859375 306.2099914550781,26.30999755859375 293.04998779296875,72.1199951171875 281.30999755859375,26.30999755859375 259.7900085449219,26.30999755859375 280.9800109863281,92.91999816894531 303.2099914550781,92.91999816894531 315.5899963378906,51.31999206542969 328.42999267578125,92.91999816894531 350.7799987792969,92.91999816894531 371.9700012207031,26.30999755859375 350.45001220703125,26.30999755859375 "/>
  <path d="m859.73,59.99l0,-1.12c-0.12,-10.33 -3.12,-18.58 -8.93,-24.52s-14.31,-9.15 -24.87,-9.15s-18.9,3.08 -24.9,9.15s-8.81,14.19 -8.93,24.52l0,1.2l0,0c0.07,10.54 2.64,18.93 7.66,25s12.27,9.31 21.17,9.31a23.78,23.78 0 0 0 12.67,-3.4a22.94,22.94 0 0 0 5.83,-5.13l0,6.19c0,6.78 -1.48,9.77 -3.71,12.17c-2.46,2.66 -5.84,4 -10.32,4c-8.83,0 -13.67,-3.13 -14.82,-9.56l-0.29,-1.62l-17.55,6.06l0.28,1.23a22.39,22.39 0 0 0 11.13,14.61c5.81,3.39 12.87,5.11 21,5.11c10.89,0 19.47,-3.08 25.5,-9.16c6.28,-6.33 9.08,-13.79 9.08,-24.2l0,-30.69zm-19.69,0.21c0,5.75 -1.26,10.25 -3.72,13.4a11.86,11.86 0 0 1 -10,4.61a14.47,14.47 0 0 1 -4.6,-0.7a11.14,11.14 0 0 1 -5.58,-3.89c-2.38,-3 -3.6,-7.6 -3.65,-13.55l0,0c0,-0.18 0,-0.34 0,-0.51c0,-6.18 1.25,-10.9 3.72,-14.05s5.73,-4.6 10.08,-4.6a11.9,11.9 0 0 1 10,4.55c2.47,3.1 3.72,7.63 3.72,13.46l0.03,1.28z" id="svg_20"/>
  <path d="m422.7,71.51a9.46,9.46 0 0 1 -4.35,5.13a16.73,16.73 0 0 1 -8.37,1.86c-7.49,0 -12.11,-3.43 -14.1,-10.45l0,0l-0.55,-2l45.33,0a47.34,47.34 0 0 0 0.46,-6.59c0,-10.86 -2.81,-19.38 -8.35,-25.33s-13.58,-9 -23.81,-9c-10.55,0 -18.88,3.08 -24.74,9.17s-8.82,14.62 -8.82,25.41s3.06,19.35 9.09,25.42s14.6,9.16 25.49,9.16c7.44,0 13.75,-1.42 18.74,-4.2a24.06,24.06 0 0 0 10.89,-12.38l0.54,-1.35l-17,-6.21l-0.45,1.36zm-23,-27.35l0,0c2.25,-2.22 5.25,-3.3 9.15,-3.3a12.1,12.1 0 0 1 9,3.37a16.05,16.05 0 0 1 4.17,8.5l-26.4,0a16,16 0 0 1 4.06,-8.57l0.02,0z" id="svg_21"/>
  <path d="m649.8,71.51a9.44,9.44 0 0 1 -4.36,5.13a16.67,16.67 0 0 1 -8.36,1.86c-7.49,0 -12.11,-3.43 -14.1,-10.45l0,0l-0.55,-2l45.34,0a47.34,47.34 0 0 0 0.46,-6.59c0,-10.86 -2.81,-19.38 -8.35,-25.33s-13.58,-9 -23.81,-9c-10.55,0 -18.88,3.08 -24.74,9.17s-8.82,14.62 -8.82,25.41s3.06,19.35 9.09,25.42s14.6,9.16 25.49,9.16c7.44,0 13.75,-1.42 18.74,-4.2a24.06,24.06 0 0 0 10.89,-12.38l0.54,-1.35l-17,-6.21l-0.46,1.36zm-23,-27.35l0,0c2.25,-2.22 5.25,-3.3 9.15,-3.3a12.1,12.1 0 0 1 9,3.37a16.05,16.05 0 0 1 4.17,8.5l-26.4,0a16,16 0 0 1 4.06,-8.57l0.02,0z" id="svg_22"/>
 </g>
</svg>